<svg width="506" height="60" viewBox="0 0 506 60" fill="none" xmlns="http://www.w3.org/2000/svg">
<path fill-rule="evenodd" clip-rule="evenodd" d="M260.466 59.1304C260.413 59.1543 260.359 59.1754 260.304 59.1937L260.264 59.2043C260.116 59.2505 259.961 59.2741 259.806 59.2742C259.563 59.2797 259.321 59.2283 259.101 59.1241C258.881 59.0199 258.689 58.8657 258.539 58.6739C258.466 58.5849 258.403 58.4885 258.35 58.3863L247.84 40.1916V46.2728C247.84 46.7873 247.596 47.2689 247.189 47.5737L247.028 47.6793L232.949 55.8042C232.702 55.9465 232.422 56.0214 232.136 56.0212C231.851 56.021 231.571 55.9459 231.324 55.8032C231.077 55.6606 230.872 55.4555 230.729 55.2086C230.586 54.9616 230.511 54.6815 230.511 54.3964V9.75283C230.511 9.08389 230.868 8.58911 231.349 8.32918L245.403 0.221411C245.776 0.00687059 246.219 -0.0512451 246.635 0.059789C247.05 0.170823 247.405 0.441959 247.621 0.813826L258.174 19.0124V9.75283C258.174 9.23826 258.42 8.75667 258.828 8.45189L258.988 8.34634L273.067 0.221411C273.314 0.0790675 273.594 0.00422454 273.879 0.00439482C274.165 0.0045651 274.445 0.0797426 274.692 0.222381C274.939 0.36502 275.144 0.5701 275.287 0.817035C275.429 1.06397 275.505 1.34407 275.505 1.62922V49.5225C275.505 50.103 275.194 50.6387 274.692 50.929L260.696 59.0077C260.626 59.0527 260.552 59.0924 260.476 59.1265V59.1251L260.466 59.1304ZM272.254 4.44352L261.426 10.6922V54.8318L272.254 48.5831V4.44352ZM245.621 3.84583L234.356 10.3466L258.174 51.5821V25.4947L245.623 3.84583H245.621ZM233.761 15.8182V51.5821L244.589 45.3334V34.563L242.67 31.2407L233.761 15.8195V15.8182Z" fill="#040062"/>
<path d="M310 29H506V31H310V29Z" fill="#B3CCDB"/>
<path d="M0 29H196V31H0V29Z" fill="#B3CCDB"/>
</svg>
