<svg width="76" height="23" viewBox="0 0 76 23" fill="none" xmlns="http://www.w3.org/2000/svg">
<path d="M25.0515 18.1232C24.4045 17.3528 24.055 16.2957 24.055 15.1121C24.055 13.928 24.4045 12.8707 25.0513 12.1002C25.7037 11.323 26.639 10.8638 27.737 10.8638C28.835 10.8638 29.7704 11.323 30.4231 12.1001C31.0702 12.8706 31.42 13.9279 31.42 15.1121C31.42 16.2958 31.0702 17.3529 30.4231 18.1232C29.7706 18.8999 28.8355 19.3591 27.738 19.3593L25.0515 18.1232ZM25.0515 18.1232C25.7039 18.9 26.639 19.3591 27.737 19.3593L25.0515 18.1232ZM4.84222 9.10566L3.938 7.86367V9.39995V22.1682H0.5V1.71053H3.57044L13.0507 14.7416L13.955 15.9846V14.4474V1.71053H17.421V22.1671H14.3515L4.84222 9.10566ZM31.085 21.1561V19.5397L30.1723 20.8738C29.697 21.5686 28.4768 22.5 26.788 22.5C23.5017 22.5 20.812 19.2308 20.812 15.1121C20.812 10.9923 23.5008 7.72317 26.788 7.72317C28.4766 7.72317 29.697 8.6555 30.1725 9.34963L31.085 10.6817V9.06706V8.05606H34.3V22.1671H31.085V21.1561ZM41.743 9.06706V10.6841L42.6557 9.34928C43.1301 8.65556 44.3503 7.72317 46.039 7.72317C49.3263 7.72317 52.016 10.9924 52.016 15.1121C52.016 19.2308 49.3263 22.5 46.039 22.5C44.3503 22.5 43.1301 21.5676 42.6557 20.8739L41.743 19.5391V21.1561V22.1671H38.528V0.5H41.743V9.06706ZM72.285 21.1561V19.5373L71.3721 20.8741C70.8979 21.5685 69.6779 22.5 67.989 22.5C64.7017 22.5 62.012 19.2308 62.012 15.1121C62.012 10.9924 64.7017 7.72317 67.989 7.72317C69.6777 7.72317 70.8979 8.65556 71.3723 9.34928L72.285 10.6841V9.06706V8.05606H75.5V22.1671H72.285V21.1561ZM41.408 15.1121C41.408 16.2957 41.7575 17.3528 42.4043 18.1231C43.0568 18.9002 43.992 19.3593 45.09 19.3593C46.188 19.3593 47.1234 18.9002 47.7761 18.1232C48.4232 17.3529 48.773 16.2958 48.773 15.1121C48.773 13.9279 48.4232 12.8706 47.7761 12.1001C47.1234 11.323 46.188 10.8638 45.09 10.8638C43.992 10.8638 43.0567 11.323 42.4043 12.1002C41.7575 12.8707 41.408 13.928 41.408 15.1121ZM58.622 0.5V22.1671H55.406V0.5H58.622ZM65.255 15.1121C65.255 16.2957 65.6045 17.3528 66.2515 18.1232C66.9041 18.9002 67.8396 19.3593 68.938 19.3593C70.036 19.3593 70.9712 18.9002 71.6237 18.1231C72.2705 17.3528 72.62 16.2957 72.62 15.1121C72.62 13.928 72.2705 12.8707 71.6237 12.1002C70.9713 11.323 70.036 10.8638 68.938 10.8638C67.8396 10.8638 66.9041 11.3229 66.2515 12.1001C65.6045 12.8707 65.255 13.928 65.255 15.1121Z" fill="#040062" stroke="#DCE0E9"/>
</svg>
